<svg width="113" height="85" viewBox="0 0 113 85" fill="none" xmlns="http://www.w3.org/2000/svg">
<path d="M15.5037 35.6435C14.4881 36.5291 12.9469 36.4237 12.0614 35.4081C11.1759 34.3925 11.2813 32.8513 12.2969 31.9658L17.9688 27.0202C18.9844 26.1347 20.5256 26.2401 21.4111 27.2557C22.2966 28.2712 22.1912 29.8124 21.1756 30.6979L15.5037 35.6435Z" fill="#4F4F4F"/>
<path d="M2.3938 29.7143C1.24748 29.0061 0.892296 27.5027 1.60048 26.3564C2.30866 25.2101 3.81204 24.8549 4.95836 25.5631L14.8314 31.6625C15.9777 32.3707 16.3329 33.874 15.6247 35.0204C14.9165 36.1667 13.4132 36.5219 12.2669 35.8137L2.3938 29.7143Z" fill="#4F4F4F"/>
<rect x="13.9878" y="24.0132" width="11.5481" height="11.5481" rx="2" fill="#282828"/>
<path d="M13.2085 37.3174C11.9855 37.8831 10.5356 37.3502 9.96993 36.1273C9.40428 34.9043 9.93714 33.4544 11.1601 32.8887L17.9902 29.7296C19.2131 29.164 20.6631 29.6968 21.2287 30.9198C21.7944 32.1427 21.2615 33.5927 20.0386 34.1583L13.2085 37.3174Z" fill="#141414"/>
<path d="M2.28397 27.9537C1.38187 26.9528 1.46197 25.4101 2.46287 24.508C3.46377 23.6059 5.00645 23.686 5.90855 24.6869L13.6781 33.3074C14.5802 34.3083 14.5001 35.851 13.4992 36.7531C12.4983 37.6552 10.9557 37.5751 10.0536 36.5742L2.28397 27.9537Z" fill="#141414"/>
<rect x="1.62659" y="42.8806" width="4.87949" height="26.1866" rx="2.43975" fill="#141414"/>
<rect x="0.650635" y="22.8746" width="6.66864" height="25.536" rx="3.33432" fill="#141414"/>
<circle cx="4.06624" cy="18.1579" r="4.06624" fill="#141414"/>
<g clip-path="url(#clip0_173_106)">
<path d="M98.97 28.0598H88.4475V14.0299H39.3428C35.4846 14.0299 32.3279 17.1866 32.3279 21.0449V59.6271H39.3428C39.3428 65.4495 44.0429 70.1495 49.8653 70.1495C55.6877 70.1495 60.3877 65.4495 60.3877 59.6271H81.4326C81.4326 65.4495 86.1326 70.1495 91.955 70.1495C97.7774 70.1495 102.477 65.4495 102.477 59.6271H109.492V42.0897L98.97 28.0598ZM49.8653 64.8883C46.9541 64.8883 44.6041 62.5383 44.6041 59.6271C44.6041 56.7159 46.9541 54.3659 49.8653 54.3659C52.7765 54.3659 55.1265 56.7159 55.1265 59.6271C55.1265 62.5383 52.7765 64.8883 49.8653 64.8883ZM97.2162 33.321L104.091 42.0897H88.4475V33.321H97.2162ZM91.955 64.8883C89.0438 64.8883 86.6938 62.5383 86.6938 59.6271C86.6938 56.7159 89.0438 54.3659 91.955 54.3659C94.8662 54.3659 97.2162 56.7159 97.2162 59.6271C97.2162 62.5383 94.8662 64.8883 91.955 64.8883Z" fill="#141414"/>
</g>
<defs>
<clipPath id="clip0_173_106">
<rect width="84.1795" height="84.1795" fill="white" transform="translate(28.8206)"/>
</clipPath>
</defs>
</svg>
