<svg width="100" height="100" viewBox="0 0 100 100" fill="none" xmlns="http://www.w3.org/2000/svg">
<path d="M83.3332 33.3333H70.8332V16.6666H12.4998C7.9165 16.6666 4.1665 20.4166 4.1665 25V70.8333H12.4998C12.4998 77.7499 18.0832 83.3333 24.9998 83.3333C31.9165 83.3333 37.4998 77.7499 37.4998 70.8333H62.4998C62.4998 77.7499 68.0832 83.3333 74.9998 83.3333C81.9165 83.3333 87.4998 77.7499 87.4998 70.8333H95.8332V50L83.3332 33.3333ZM24.9998 77.0833C21.5415 77.0833 18.7498 74.2916 18.7498 70.8333C18.7498 67.375 21.5415 64.5833 24.9998 64.5833C28.4582 64.5833 31.2498 67.375 31.2498 70.8333C31.2498 74.2916 28.4582 77.0833 24.9998 77.0833ZM81.2498 39.5833L89.4165 50H70.8332V39.5833H81.2498ZM74.9998 77.0833C71.5415 77.0833 68.7498 74.2916 68.7498 70.8333C68.7498 67.375 71.5415 64.5833 74.9998 64.5833C78.4582 64.5833 81.2498 67.375 81.2498 70.8333C81.2498 74.2916 78.4582 77.0833 74.9998 77.0833Z" fill="#00880E"/>
</svg>
